<svg width="98" height="27" viewBox="0 0 98 27" fill="none" xmlns="http://www.w3.org/2000/svg">
<rect width="98" height="27" fill="white"/>
<path d="M10.3352 9.27273L12.4446 15.9034H12.5256L14.6392 9.27273H16.6847L13.6761 18H11.2983L8.28551 9.27273H10.3352ZM17.7351 18V9.27273H21.1783C21.8374 9.27273 22.3999 9.39062 22.8658 9.62642C23.3345 9.85937 23.6911 10.1903 23.9354 10.6193C24.1825 11.0455 24.3061 11.5469 24.3061 12.1236C24.3061 12.7031 24.1811 13.2017 23.9311 13.6193C23.6811 14.0341 23.3189 14.3523 22.8445 14.5739C22.3729 14.7955 21.8018 14.9062 21.1314 14.9062H18.826V13.4233H20.8331C21.1854 13.4233 21.478 13.375 21.7109 13.2784C21.9439 13.1818 22.1172 13.0369 22.2308 12.8438C22.3473 12.6506 22.4055 12.4105 22.4055 12.1236C22.4055 11.8338 22.3473 11.5895 22.2308 11.3906C22.1172 11.1918 21.9425 11.0412 21.7067 10.9389C21.4737 10.8338 21.1797 10.7812 20.8246 10.7812H19.5803V18H17.7351ZM22.4482 14.0284L24.6172 18H22.5803L20.4581 14.0284H22.4482Z" fill="black"/>
<path d="M34.1744 12.0938C34.1147 11.8864 34.0309 11.7031 33.9229 11.544C33.815 11.3821 33.6829 11.2457 33.5266 11.1349C33.3732 11.0213 33.1971 10.9347 32.9982 10.875C32.8022 10.8153 32.5849 10.7855 32.3462 10.7855C31.9002 10.7855 31.5082 10.8963 31.1701 11.1179C30.8349 11.3395 30.5735 11.6619 30.386 12.0852C30.1985 12.5057 30.1048 13.0199 30.1048 13.6278C30.1048 14.2358 30.1971 14.7528 30.3817 15.179C30.5664 15.6051 30.8278 15.9304 31.1658 16.1548C31.5039 16.3764 31.9031 16.4872 32.3633 16.4872C32.7809 16.4872 33.1374 16.4134 33.4329 16.2656C33.7312 16.1151 33.9585 15.9034 34.1147 15.6307C34.2738 15.358 34.3533 15.0355 34.3533 14.6634L34.7283 14.7188H32.4783V13.3295H36.1303V14.429C36.1303 15.196 35.9684 15.8551 35.6445 16.4062C35.3207 16.9545 34.8746 17.3778 34.3065 17.6761C33.7383 17.9716 33.0877 18.1193 32.3548 18.1193C31.5366 18.1193 30.8178 17.9389 30.1985 17.5781C29.5792 17.2145 29.0962 16.6989 28.7496 16.0312C28.4059 15.3608 28.234 14.5653 28.234 13.6449C28.234 12.9375 28.3363 12.3068 28.5408 11.7528C28.7482 11.196 29.038 10.7244 29.4102 10.3381C29.7823 9.9517 30.2156 9.65767 30.7099 9.45597C31.2042 9.25426 31.7397 9.15341 32.3164 9.15341C32.8107 9.15341 33.271 9.22585 33.6971 9.37074C34.1232 9.51278 34.5011 9.71449 34.8306 9.97585C35.163 10.2372 35.4343 10.5483 35.6445 10.9091C35.8548 11.267 35.9897 11.6619 36.0494 12.0938H34.1744ZM40.4396 18.1278C39.7777 18.1278 39.2053 17.9872 38.7223 17.706C38.2422 17.4219 37.8714 17.027 37.6101 16.5213C37.3487 16.0128 37.218 15.4233 37.218 14.7528C37.218 14.0767 37.3487 13.4858 37.6101 12.9801C37.8714 12.4716 38.2422 12.0767 38.7223 11.7955C39.2053 11.5114 39.7777 11.3693 40.4396 11.3693C41.1016 11.3693 41.6726 11.5114 42.1527 11.7955C42.6357 12.0767 43.0078 12.4716 43.2692 12.9801C43.5305 13.4858 43.6612 14.0767 43.6612 14.7528C43.6612 15.4233 43.5305 16.0128 43.2692 16.5213C43.0078 17.027 42.6357 17.4219 42.1527 17.706C41.6726 17.9872 41.1016 18.1278 40.4396 18.1278ZM40.4482 16.7216C40.7493 16.7216 41.0007 16.6364 41.2024 16.4659C41.4041 16.2926 41.5561 16.0568 41.6584 15.7585C41.7635 15.4602 41.8161 15.1207 41.8161 14.7401C41.8161 14.3594 41.7635 14.0199 41.6584 13.7216C41.5561 13.4233 41.4041 13.1875 41.2024 13.0142C41.0007 12.8409 40.7493 12.7543 40.4482 12.7543C40.1442 12.7543 39.8885 12.8409 39.6811 13.0142C39.4766 13.1875 39.3217 13.4233 39.2166 13.7216C39.1143 14.0199 39.0632 14.3594 39.0632 14.7401C39.0632 15.1207 39.1143 15.4602 39.2166 15.7585C39.3217 16.0568 39.4766 16.2926 39.6811 16.4659C39.8885 16.6364 40.1442 16.7216 40.4482 16.7216ZM46.657 14.2159V18H44.8416V11.4545H46.5717V12.6094H46.6484C46.7933 12.2287 47.0362 11.9276 47.3771 11.706C47.718 11.4815 48.1314 11.3693 48.6172 11.3693C49.0717 11.3693 49.468 11.4688 49.8061 11.6676C50.1442 11.8665 50.407 12.1506 50.5945 12.5199C50.782 12.8864 50.8757 13.3239 50.8757 13.8324V18H49.0604V14.1562C49.0632 13.7557 48.9609 13.4432 48.7536 13.2188C48.5462 12.9915 48.2607 12.8778 47.897 12.8778C47.6527 12.8778 47.4368 12.9304 47.2493 13.0355C47.0646 13.1406 46.9197 13.294 46.8146 13.4957C46.7124 13.6946 46.6598 13.9347 46.657 14.2159ZM55.2553 20.5909C54.6673 20.5909 54.163 20.5099 53.7425 20.348C53.3249 20.1889 52.9925 19.9716 52.7454 19.696C52.4982 19.4205 52.3377 19.1108 52.2638 18.767L53.9428 18.5412C53.994 18.6719 54.0749 18.794 54.1857 18.9077C54.2965 19.0213 54.4428 19.1122 54.6246 19.1804C54.8093 19.2514 55.0337 19.2869 55.2979 19.2869C55.6928 19.2869 56.0181 19.1903 56.2738 18.9972C56.5323 18.8068 56.6616 18.4872 56.6616 18.0384V16.8409H56.5849C56.5053 17.0227 56.386 17.1946 56.2269 17.3565C56.0678 17.5185 55.8633 17.6506 55.6133 17.7528C55.3633 17.8551 55.065 17.9062 54.7184 17.9062C54.2269 17.9062 53.7795 17.7926 53.3761 17.5653C52.9755 17.3352 52.6559 16.9844 52.4173 16.5128C52.1815 16.0384 52.0636 15.4389 52.0636 14.7145C52.0636 13.973 52.1843 13.3537 52.4258 12.8565C52.6673 12.3594 52.9883 11.9872 53.3888 11.7401C53.7923 11.4929 54.234 11.3693 54.7141 11.3693C55.0806 11.3693 55.3874 11.4318 55.6346 11.5568C55.8817 11.679 56.0806 11.8324 56.2312 12.017C56.3846 12.1989 56.5025 12.3778 56.5849 12.554H56.6531V11.4545H58.4556V18.0639C58.4556 18.6207 58.3192 19.0866 58.0465 19.4616C57.7738 19.8366 57.396 20.1179 56.913 20.3054C56.4329 20.4957 55.8803 20.5909 55.2553 20.5909ZM55.2937 16.5426C55.5863 16.5426 55.8335 16.4702 56.0352 16.3253C56.2397 16.1776 56.396 15.9673 56.5039 15.6946C56.6147 15.419 56.6701 15.0895 56.6701 14.706C56.6701 14.3224 56.6161 13.9901 56.5082 13.7088C56.4002 13.4247 56.244 13.2045 56.0394 13.0483C55.8349 12.892 55.5863 12.8139 55.2937 12.8139C54.9954 12.8139 54.744 12.8949 54.5394 13.0568C54.3349 13.2159 54.18 13.4375 54.0749 13.7216C53.9698 14.0057 53.9173 14.3338 53.9173 14.706C53.9173 15.0838 53.9698 15.4105 54.0749 15.6861C54.1829 15.9588 54.3377 16.1705 54.5394 16.321C54.744 16.4687 54.9954 16.5426 55.2937 16.5426ZM62.8491 20.5909C62.261 20.5909 61.7567 20.5099 61.3363 20.348C60.9187 20.1889 60.5863 19.9716 60.3391 19.696C60.092 19.4205 59.9315 19.1108 59.8576 18.767L61.5366 18.5412C61.5877 18.6719 61.6687 18.794 61.7795 18.9077C61.8903 19.0213 62.0366 19.1122 62.2184 19.1804C62.4031 19.2514 62.6275 19.2869 62.8917 19.2869C63.2866 19.2869 63.6119 19.1903 63.8675 18.9972C64.1261 18.8068 64.2553 18.4872 64.2553 18.0384V16.8409H64.1786C64.0991 17.0227 63.9798 17.1946 63.8207 17.3565C63.6616 17.5185 63.457 17.6506 63.207 17.7528C62.957 17.8551 62.6587 17.9062 62.3121 17.9062C61.8207 17.9062 61.3732 17.7926 60.9698 17.5653C60.5692 17.3352 60.2496 16.9844 60.011 16.5128C59.7752 16.0384 59.6573 15.4389 59.6573 14.7145C59.6573 13.973 59.7781 13.3537 60.0195 12.8565C60.261 12.3594 60.582 11.9872 60.9826 11.7401C61.386 11.4929 61.8278 11.3693 62.3079 11.3693C62.6744 11.3693 62.9812 11.4318 63.2283 11.5568C63.4755 11.679 63.6744 11.8324 63.8249 12.017C63.9783 12.1989 64.0962 12.3778 64.1786 12.554H64.2468V11.4545H66.0494V18.0639C66.0494 18.6207 65.913 19.0866 65.6403 19.4616C65.3675 19.8366 64.9897 20.1179 64.5067 20.3054C64.0266 20.4957 63.4741 20.5909 62.8491 20.5909ZM62.8874 16.5426C63.18 16.5426 63.4272 16.4702 63.6289 16.3253C63.8335 16.1776 63.9897 15.9673 64.0977 15.6946C64.2085 15.419 64.2638 15.0895 64.2638 14.706C64.2638 14.3224 64.2099 13.9901 64.1019 13.7088C63.994 13.4247 63.8377 13.2045 63.6332 13.0483C63.4286 12.892 63.18 12.8139 62.8874 12.8139C62.5891 12.8139 62.3377 12.8949 62.1332 13.0568C61.9286 13.2159 61.7738 13.4375 61.6687 13.7216C61.5636 14.0057 61.511 14.3338 61.511 14.706C61.511 15.0838 61.5636 15.4105 61.6687 15.6861C61.7766 15.9588 61.9315 16.1705 62.1332 16.321C62.3377 16.4687 62.5891 16.5426 62.8874 16.5426ZM70.4513 18.1278C69.7894 18.1278 69.217 17.9872 68.734 17.706C68.2539 17.4219 67.8832 17.027 67.6218 16.5213C67.3604 16.0128 67.2298 15.4233 67.2298 14.7528C67.2298 14.0767 67.3604 13.4858 67.6218 12.9801C67.8832 12.4716 68.2539 12.0767 68.734 11.7955C69.217 11.5114 69.7894 11.3693 70.4513 11.3693C71.1133 11.3693 71.6843 11.5114 72.1644 11.7955C72.6474 12.0767 73.0195 12.4716 73.2809 12.9801C73.5423 13.4858 73.6729 14.0767 73.6729 14.7528C73.6729 15.4233 73.5423 16.0128 73.2809 16.5213C73.0195 17.027 72.6474 17.4219 72.1644 17.706C71.6843 17.9872 71.1133 18.1278 70.4513 18.1278ZM70.4599 16.7216C70.761 16.7216 71.0124 16.6364 71.2141 16.4659C71.4158 16.2926 71.5678 16.0568 71.6701 15.7585C71.7752 15.4602 71.8278 15.1207 71.8278 14.7401C71.8278 14.3594 71.7752 14.0199 71.6701 13.7216C71.5678 13.4233 71.4158 13.1875 71.2141 13.0142C71.0124 12.8409 70.761 12.7543 70.4599 12.7543C70.1559 12.7543 69.9002 12.8409 69.6928 13.0142C69.4883 13.1875 69.3335 13.4233 69.2283 13.7216C69.1261 14.0199 69.0749 14.3594 69.0749 14.7401C69.0749 15.1207 69.1261 15.4602 69.2283 15.7585C69.3335 16.0568 69.4883 16.2926 69.6928 16.4659C69.9002 16.6364 70.1559 16.7216 70.4599 16.7216ZM76.6687 14.2159V18H74.8533V11.4545H76.5835V12.6094H76.6602C76.805 12.2287 77.0479 11.9276 77.3888 11.706C77.7298 11.4815 78.1431 11.3693 78.6289 11.3693C79.0835 11.3693 79.4798 11.4688 79.8178 11.6676C80.1559 11.8665 80.4187 12.1506 80.6062 12.5199C80.7937 12.8864 80.8874 13.3239 80.8874 13.8324V18H79.0721V14.1562C79.0749 13.7557 78.9727 13.4432 78.7653 13.2188C78.5579 12.9915 78.2724 12.8778 77.9087 12.8778C77.6644 12.8778 77.4485 12.9304 77.261 13.0355C77.0763 13.1406 76.9315 13.294 76.8263 13.4957C76.7241 13.6946 76.6715 13.9347 76.6687 14.2159ZM85.267 20.5909C84.679 20.5909 84.1747 20.5099 83.7543 20.348C83.3366 20.1889 83.0043 19.9716 82.7571 19.696C82.5099 19.4205 82.3494 19.1108 82.2756 18.767L83.9545 18.5412C84.0057 18.6719 84.0866 18.794 84.1974 18.9077C84.3082 19.0213 84.4545 19.1122 84.6364 19.1804C84.821 19.2514 85.0455 19.2869 85.3097 19.2869C85.7045 19.2869 86.0298 19.1903 86.2855 18.9972C86.544 18.8068 86.6733 18.4872 86.6733 18.0384V16.8409H86.5966C86.517 17.0227 86.3977 17.1946 86.2386 17.3565C86.0795 17.5185 85.875 17.6506 85.625 17.7528C85.375 17.8551 85.0767 17.9062 84.7301 17.9062C84.2386 17.9062 83.7912 17.7926 83.3878 17.5653C82.9872 17.3352 82.6676 16.9844 82.429 16.5128C82.1932 16.0384 82.0753 15.4389 82.0753 14.7145C82.0753 13.973 82.196 13.3537 82.4375 12.8565C82.679 12.3594 83 11.9872 83.4006 11.7401C83.804 11.4929 84.2457 11.3693 84.7259 11.3693C85.0923 11.3693 85.3991 11.4318 85.6463 11.5568C85.8935 11.679 86.0923 11.8324 86.2429 12.017C86.3963 12.1989 86.5142 12.3778 86.5966 12.554H86.6648V11.4545H88.4673V18.0639C88.4673 18.6207 88.331 19.0866 88.0582 19.4616C87.7855 19.8366 87.4077 20.1179 86.9247 20.3054C86.4446 20.4957 85.892 20.5909 85.267 20.5909ZM85.3054 16.5426C85.598 16.5426 85.8452 16.4702 86.0469 16.3253C86.2514 16.1776 86.4077 15.9673 86.5156 15.6946C86.6264 15.419 86.6818 15.0895 86.6818 14.706C86.6818 14.3224 86.6278 13.9901 86.5199 13.7088C86.4119 13.4247 86.2557 13.2045 86.0511 13.0483C85.8466 12.892 85.598 12.8139 85.3054 12.8139C85.0071 12.8139 84.7557 12.8949 84.5511 13.0568C84.3466 13.2159 84.1918 13.4375 84.0866 13.7216C83.9815 14.0057 83.929 14.3338 83.929 14.706C83.929 15.0838 83.9815 15.4105 84.0866 15.6861C84.1946 15.9588 84.3494 16.1705 84.5511 16.321C84.7557 16.4687 85.0071 16.5426 85.3054 16.5426Z" fill="#B3AC06"/>
</svg>
